<svg xmlns="http://www.w3.org/2000/svg" viewBox="0 0 100 100" width="512" height="512">
  <rect width="100" height="100" rx="20" fill="#070a0f"/>
  <g stroke="#ffffff" stroke-width="2.5" stroke-linecap="round" stroke-linejoin="round" fill="none">
    <path d="M 33 50 C 40 45, 60 45, 67 50 C 80 55, 85 72, 72 82 C 64 88, 55 83, 50 80 C 45 83, 36 88, 28 82 C 15 72, 20 55, 33 50 Z" />
    <circle cx="50" cy="67" r="10" stroke-dasharray="3 4" stroke-width="3" />
    <circle cx="50" cy="67" r="5.5" stroke-width="2" />
    <g stroke="#ffffff" fill="none">
      <g transform="translate(18, 48) rotate(-48)">
        <rect x="-7" y="-20" width="14" height="18" rx="2"/>
        <line x1="-7" y1="-15" x2="7" y2="-15" stroke="#10B981" stroke-width="2"/>
        <line x1="-7" y1="-10" x2="7" y2="-10" stroke="#10B981" stroke-width="2"/>
        <circle cx="0" cy="-4" r="1" stroke="#10B981"/>
        <line x1="-2.5" y1="-2" x2="-2.5" y2="8" />
        <line x1="2.5" y1="-2" x2="2.5" y2="8" />
      </g>
      <g transform="translate(36, 32) rotate(-16)">
        <rect x="-7" y="-20" width="14" height="18" rx="2"/>
        <line x1="-7" y1="-15" x2="7" y2="-15" stroke="#10B981" stroke-width="2"/>
        <line x1="-7" y1="-10" x2="7" y2="-10" stroke="#10B981" stroke-width="2"/>
        <circle cx="0" cy="-4" r="1" stroke="#10B981"/>
        <line x1="-2.5" y1="-2" x2="-2.5" y2="8" />
        <line x1="2.5" y1="-2" x2="2.5" y2="8" />
      </g>
      <g transform="translate(64, 32) rotate(16)">
        <rect x="-7" y="-20" width="14" height="18" rx="2"/>
        <line x1="-7" y1="-15" x2="7" y2="-15" stroke="#10B981" stroke-width="2"/>
        <line x1="-7" y1="-10" x2="7" y2="-10" stroke="#10B981" stroke-width="2"/>
        <circle cx="0" cy="-4" r="1" stroke="#10B981"/>
        <line x1="-2.5" y1="-2" x2="-2.5" y2="8" />
        <line x1="2.5" y1="-2" x2="2.5" y2="8" />
      </g>
      <g transform="translate(82, 48) rotate(48)">
        <rect x="-7" y="-20" width="14" height="18" rx="2"/>
        <line x1="-7" y1="-15" x2="7" y2="-15" stroke="#10B981" stroke-width="2"/>
        <line x1="-7" y1="-10" x2="7" y2="-10" stroke="#10B981" stroke-width="2"/>
        <circle cx="0" cy="-4" r="1" stroke="#10B981"/>
        <line x1="-2.5" y1="-2" x2="-2.5" y2="8" />
        <line x1="2.5" y1="-2" x2="2.5" y2="8" />
      </g>
    </g>
  </g>
</svg>
